HIERARCHY
ROOT root
{
  OFFSET 0.000000 0.000000 0.000000
  CHANNELS 6 Xposition Yposition Zposition Zrotation Yrotation Xrotation
  JOINT lhipjoint
  {
    OFFSET 0.000000 0.000000 0.000000
    CHANNELS 3 Zrotation Yrotation Xrotation
    JOINT lfemur
    {
      OFFSET 0.102404 -0.080329 0.066655
      CHANNELS 3 Zrotation Yrotation Xrotation
      JOINT ltibia
      {
        OFFSET 0.121828 -0.334720 0.000000
        CHANNELS 3 Zrotation Yrotation Xrotation
        JOINT lfoot
        {
          OFFSET 0.142104 -0.390427 0.000000
          CHANNELS 3 Zrotation Yrotation Xrotation
          JOINT ltoes
          {
            OFFSET 0.010339 -0.028407 0.110130
            CHANNELS 3 Zrotation Yrotation Xrotation
            End Site
            {
              OFFSET 0.000000 -0.000000 0.057305
            }
          }
        }
      }
    }
  }
  JOINT rhipjoint
  {
    OFFSET 0.000000 0.000000 0.000000
    CHANNELS 3 Zrotation Yrotation Xrotation
    JOINT rfemur
    {
      OFFSET -0.081233 -0.080330 0.066655
      CHANNELS 3 Zrotation Yrotation Xrotation
      JOINT rtibia
      {
        OFFSET -0.127134 -0.349297 0.000000
        CHANNELS 3 Zrotation Yrotation Xrotation
        JOINT rfoot
        {
          OFFSET -0.139133 -0.382266 0.000000
          CHANNELS 3 Zrotation Yrotation Xrotation
          JOINT rtoes
          {
            OFFSET -0.014837 -0.040763 0.099426
            CHANNELS 3 Zrotation Yrotation Xrotation
            End Site
            {
              OFFSET -0.000000 -0.000000 0.053684
            }
          }
        }
      }
    }
  }
  JOINT lowerback
  {
    OFFSET 0.000000 0.000000 0.000000
    CHANNELS 3 Zrotation Yrotation Xrotation
    JOINT upperback
    {
      OFFSET -0.004925 0.109363 -0.016307
      CHANNELS 3 Zrotation Yrotation Xrotation
      JOINT thorax
      {
        OFFSET 0.000675 0.109981 0.003368
        CHANNELS 3 Zrotation Yrotation Xrotation
        JOINT lowerneck
        {
          OFFSET 0.002891 0.112938 0.011517
          CHANNELS 3 Zrotation Yrotation Xrotation
          JOINT upperneck
          {
            OFFSET 0.001559 0.090381 0.019281
            CHANNELS 3 Zrotation Yrotation Xrotation
            JOINT head
            {
              OFFSET -0.002701 0.094100 -0.013586
              CHANNELS 3 Zrotation Yrotation Xrotation
              End Site
              {
                OFFSET -0.001235 0.095160 -0.006750
              }
            }
          }
        }
        JOINT lclavicle
        {
          OFFSET 0.002891 0.112938 0.011517
          CHANNELS 3 Zrotation Yrotation Xrotation
          JOINT lhumerus
          {
            OFFSET 0.146536 0.100864 -0.016287
            CHANNELS 3 Zrotation Yrotation Xrotation
            JOINT lradius
            {
              OFFSET 0.292299 -0.000000 0.000000
              CHANNELS 3 Zrotation Yrotation Xrotation
              JOINT lwrist
              {
                OFFSET 0.192136 -0.000000 -0.000000
                CHANNELS 3 Zrotation Yrotation Xrotation
                End Site
                {
                  OFFSET 0.096068 -0.000000 -0.000000
                }
              }
            }
          }
        }
        JOINT rclavicle
        {
          OFFSET 0.002891 0.112938 0.011517
          CHANNELS 3 Zrotation Yrotation Xrotation
          JOINT rhumerus
          {
            OFFSET -0.162418 0.087763 -0.041252
            CHANNELS 3 Zrotation Yrotation Xrotation
            JOINT rradius
            {
              OFFSET -0.306127 -0.000000 -0.000000
              CHANNELS 3 Zrotation Yrotation Xrotation
              JOINT rwrist
              {
                OFFSET -0.193077 -0.000000 -0.000000
                CHANNELS 3 Zrotation Yrotation Xrotation
                End Site
                {
                  OFFSET -0.096539 -0.000000 -0.000000
                }
              }
            }
          }
        }
      }
    }
  }
}
MOTION
Frames: 14
Frame Time: 0.04166667
0.00000 0.13842 0.00000 10.09821 0.00006 83.91644 0.00000 -0.00000 0.00000 -3.15076 52.57058 -68.90652 20.92639 19.97941 92.70948 0.06055 1.77161 4.37092 0.32201 3.64750 10.08700 0.00000 -0.00000 0.00000 19.80119 -9.30878 6.28010 -0.41958 -4.15760 11.52048 -0.83446 -26.13883 -40.77711 -1.07670 -6.59571 18.52301 -2.71697 -1.77352 9.09475 0.33045 -2.69577 -3.33952 2.31520 -1.15386 -8.51322 0.71327 3.25777 -16.75160 -7.37958 4.73323 -12.84760 -2.31238 2.81489 -1.12828 0.00000 0.00000 0.00000 -67.30066 33.46924 26.96813 132.35824 -51.99895 -95.69686 -0.00000 -0.00000 6.11151 0.00000 0.00000 0.00000 78.40796 -34.30676 10.13577 -128.99630 53.39237 -93.02220 0.00000 -0.00000 -7.21599
0.00000 0.13825 0.00000 9.58060 0.18975 83.78914 0.00000 -0.00000 0.00000 -2.74610 53.41509 -69.31266 21.10734 19.97057 93.23917 0.04034 1.41477 3.56620 0.19939 2.87539 7.93203 0.00000 -0.00000 0.00000 19.82362 -9.62426 6.61557 -0.44990 -4.30328 11.93149 -0.69390 -24.44514 -38.12084 -0.35739 -3.84065 10.62879 -3.34738 -1.30329 8.30635 0.47863 -2.10740 -3.73035 2.71463 -0.82352 -8.48496 -0.18821 2.52259 -17.66110 -5.62740 4.03515 -12.80970 -1.59676 2.49510 -1.06935 -0.00000 -0.00000 0.00000 -63.11692 32.63035 31.98585 132.05129 -52.13392 -95.45476 -0.00000 -0.00000 3.91303 -0.00000 -0.00000 0.00000 75.46072 -36.21022 12.40283 -129.68233 53.12282 -93.57195 0.00000 -0.00000 -6.88083
0.00000 0.13998 0.00000 9.34402 0.55057 83.27549 0.00000 -0.00000 0.00000 -1.98285 53.78153 -69.37909 21.33447 19.95725 93.90440 0.01418 1.37230 2.18159 0.16080 2.58365 7.12167 0.00000 -0.00000 0.00000 19.91859 -10.75815 6.90435 -0.52252 -4.63264 12.86368 -0.48719 -22.47476 -34.64830 -0.28534 -3.43537 9.49330 -4.07923 -0.90974 7.71167 0.56319 -1.63045 -3.85900 3.12970 -0.54891 -8.29242 -0.07032 1.65562 -17.43870 -4.94426 2.89132 -13.86230 -1.46961 1.95843 -1.49342 -0.00000 -0.00000 0.00000 -58.91331 30.05830 36.44208 131.44389 -52.39629 -94.97440 -0.00000 -0.00000 2.40532 -0.00000 -0.00000 0.00000 72.43959 -36.77812 15.59731 -129.53913 53.17969 -93.45736 0.00000 -0.00000 -8.18115
0.00000 0.14154 0.00000 8.77227 0.68299 82.60666 0.00000 -0.00000 0.00000 -0.92273 54.72887 -69.13007 21.57605 19.94034 94.61247 0.00836 1.37158 1.76180 0.08605 1.89209 5.20753 0.00000 -0.00000 0.00000 19.90978 -11.04010 7.63953 -0.59976 -4.95760 13.78766 -1.12498 -18.39739 -33.76131 -0.00040 -0.12991 0.35693 -4.87558 -0.74704 6.88093 0.45691 -1.46285 -4.09954 3.42304 -0.42534 -8.07106 -0.62866 1.26660 -17.27200 -4.19916 2.50666 -14.10230 -1.15590 1.79688 -1.62513 -0.00000 -0.00000 0.00000 -56.50153 27.85482 39.26781 129.76834 -53.08850 -93.64073 -0.00000 -0.00000 0.95917 -0.00000 -0.00000 0.00000 69.30414 -35.90448 19.37324 -128.40543 53.61871 -92.54719 0.00000 -0.00000 -8.72126
0.00000 0.14477 0.00000 8.04394 1.33910 81.29955 0.00000 -0.00000 0.00000 1.50911 55.75832 -67.89421 21.81661 19.92069 95.31815 0.00112 1.58818 1.22667 0.13340 2.35416 6.48549 0.00000 -0.00000 0.00000 20.17977 -11.69887 8.83626 -0.64531 -5.13895 14.30530 -1.30868 -15.53421 -32.06436 -0.25395 3.24237 -8.95426 -4.92491 -0.73408 6.12899 0.59517 -1.39580 -4.02644 3.56835 -0.40243 -7.55582 -0.99139 0.89251 -17.41120 -3.40379 2.07928 -13.28130 -0.84217 1.54534 -1.35312 -0.00000 -0.00000 0.00000 -55.18308 25.45936 40.55126 127.03021 -54.12523 -91.43639 -0.00000 -0.00000 0.56085 -0.00000 -0.00000 0.00000 66.39484 -34.21209 23.06293 -126.59910 54.27832 -91.08673 0.00000 -0.00000 -9.49678
0.00000 0.15032 0.00000 7.61898 1.69176 79.55617 0.00000 -0.00000 0.00000 3.84289 56.13916 -66.12996 22.03971 19.89996 95.97326 -0.00755 1.70149 0.14830 0.12354 2.26583 6.24090 0.00000 -0.00000 0.00000 20.07799 -11.75908 9.36370 -0.85896 -5.91021 16.52413 -1.58965 -13.12932 -31.69146 -0.31460 3.60563 -9.96973 -4.93240 -0.66361 5.61629 0.62555 -1.26424 -3.63567 3.57116 -0.36651 -6.85112 -1.16669 0.75498 -17.37820 -3.34829 1.91506 -13.03350 -0.79873 1.45600 -1.28099 0.00000 0.00000 0.00000 -54.38935 22.25499 41.34768 124.23853 -55.07042 -89.16065 -0.00000 0.00000 -0.34012 0.00000 0.00000 0.00000 65.13561 -31.50008 24.85655 -124.61563 54.94900 -89.46959 0.00000 -0.00000 -9.83925
0.00000 0.15967 0.00000 7.44577 2.12264 77.17824 0.00000 -0.00000 0.00000 6.98289 55.74749 -63.38910 22.27681 19.87526 96.67026 -0.00940 1.79155 -0.12019 0.13654 2.38159 6.56146 0.00000 -0.00000 0.00000 19.72806 -12.84212 9.78601 -1.05744 -6.53835 18.35467 -1.53378 -12.32518 -30.68713 -0.21777 3.00416 -8.29033 -4.80224 -0.57077 6.12940 0.71532 -1.14232 -3.00886 3.58166 -0.33578 -6.49095 -1.53333 0.56546 -17.07050 -2.99690 1.72240 -13.10520 -0.63762 1.37293 -1.35893 0.00000 0.00000 0.00000 -53.50182 18.02393 41.76420 119.87132 -56.34412 -85.55182 -0.00000 0.00000 -1.69647 0.00000 0.00000 0.00000 64.31414 -28.24475 26.20356 -121.43940 55.91402 -86.85382 0.00000 -0.00000 -9.62105
0.00000 0.17475 0.00000 7.27566 2.16283 73.75124 0.00000 -0.00000 0.00000 10.64729 54.66619 -59.20801 22.40965 19.86021 97.06112 -0.01062 1.83660 -0.48232 0.24437 3.18107 8.78328 0.00000 -0.00000 0.00000 18.89701 -13.90959 10.89186 -1.27805 -7.16453 20.20373 -1.32074 -11.94418 -28.97156 -0.12622 2.29023 -6.30844 -4.85909 -0.26997 8.70986 0.66049 -0.87143 -2.22293 3.56291 -0.19834 -7.16540 -1.71098 0.32891 -16.82090 -2.77594 1.41569 -12.86080 -0.54872 1.20753 -1.32144 0.00000 0.00000 0.00000 -52.85854 13.06256 42.40623 114.11517 -57.68436 -80.72199 -0.00000 0.00000 -3.29405 0.00000 0.00000 0.00000 63.43633 -24.71471 27.08993 -118.85331 56.60783 -84.70314 0.00000 -0.00000 -9.78193
0.00000 0.19393 0.00000 7.32855 2.46680 70.46584 0.00000 -0.00000 0.00000 13.13328 52.82321 -56.63397 22.63289 19.83298 97.71867 -0.02486 2.81801 -0.65198 0.62931 5.07603 14.12552 0.00000 -0.00000 0.00000 18.62740 -14.73020 11.84867 -1.53434 -7.82010 22.16900 -1.54013 -11.02661 -29.70568 -0.20929 2.94543 -8.12687 -4.81269 0.10216 11.83990 0.73415 -0.50159 -1.35181 3.59621 -0.00576 -8.06280 -1.84155 0.09056 -16.53990 -2.72798 1.11598 -13.24400 -0.52863 1.07890 -1.49150 0.00000 0.00000 0.00000 -52.27230 7.14917 43.16312 106.91208 -58.89120 -74.59176 -0.00000 0.00000 -5.04086 0.00000 0.00000 0.00000 62.55515 -20.84415 27.40749 -115.35733 57.42525 -81.77027 0.00000 -0.00000 -10.05940
0.00000 0.21489 0.00000 7.18649 2.94910 67.73874 0.00000 -0.00000 0.00000 14.99065 50.66700 -54.98525 22.87434 19.80075 98.43087 -0.03119 3.13247 -1.22384 0.57976 4.87568 13.55431 0.00000 -0.00000 0.00000 18.93705 -14.79857 12.03926 -1.82779 -8.49776 24.23646 -1.52327 -11.33009 -29.82975 -0.21269 2.96913 -8.19281 -4.39944 0.29509 14.95650 0.86847 -0.28780 -0.63411 3.49722 0.10468 -9.08437 -1.86752 -0.09992 -17.89570 -2.49918 0.93542 -12.20170 -0.44404 0.95336 -0.95325 -0.00000 -0.00000 0.00000 -51.41034 1.40274 43.67766 99.40541 -59.66308 -68.13611 -0.00000 0.00000 -6.82172 -0.00000 -0.00000 0.00000 61.93907 -16.08831 27.61738 -110.76882 58.30573 -77.88401 0.00000 -0.00000 -9.85132
0.00000 0.23664 0.00000 7.07562 2.72005 66.25945 0.00000 -0.00000 0.00000 14.64639 48.44915 -54.96120 23.00465 19.78216 98.81573 -0.02525 2.84485 -1.45231 0.41856 4.15261 11.50641 0.00000 -0.00000 0.00000 18.93911 -13.97260 10.95376 -2.16331 -9.19828 26.41754 -1.71905 -10.88790 -30.75263 -0.11463 2.18291 -6.01143 -4.63963 0.60430 16.71380 0.76018 -0.00716 -0.48659 3.46724 0.27167 -9.95076 -2.21625 -0.08418 -16.00690 -2.24767 0.93792 -13.39180 -0.32573 1.00427 -1.62476 -0.00000 -0.00000 0.00000 -50.33274 -3.89112 44.75426 91.64566 -59.98976 -61.42513 -0.00000 0.00000 -8.84770 -0.00000 -0.00000 0.00000 61.12157 -12.04757 27.54816 -106.56303 58.93762 -74.29283 0.00000 -0.00000 -10.15610
0.00000 0.25806 0.00000 6.81408 2.64780 65.82631 0.00000 -0.00000 0.00000 13.39438 46.27654 -56.24179 23.08454 19.77034 99.05184 -0.01551 2.48825 -2.12442 0.26862 3.33399 9.21003 0.00000 -0.00000 0.00000 19.30545 -12.78186 8.17167 -2.71757 -10.22318 29.70253 -1.94612 -10.76778 -32.06241 -0.18622 2.77930 -7.66491 -4.95971 0.61849 17.75770 0.93323 -0.06056 0.03427 3.85904 0.26533 -9.95942 -2.04751 -0.16661 -18.56000 -2.08144 0.98649 -12.96940 -0.28531 1.03859 -1.10904 -0.00000 -0.00000 0.00000 -49.33884 -9.32009 44.14631 83.88308 -59.85814 -54.70512 -0.00000 0.00000 -10.44970 -0.00000 -0.00000 0.00000 59.86941 -5.90442 27.50527 -101.17277 59.52302 -69.66040 0.00000 -0.00000 -10.58740
0.00000 0.27964 0.00000 6.19386 2.75737 65.28744 0.00000 -0.00000 0.00000 12.70339 44.36024 -57.30330 23.22600 19.74863 99.47028 0.01136 1.72957 -3.35614 0.19147 2.81798 7.77241 0.00000 -0.00000 0.00000 19.81627 -11.23994 5.04537 -3.53680 -11.51710 34.04436 -2.12280 -10.12678 -32.67113 -0.03878 1.27114 -3.49518 -4.73713 0.78927 18.88230 0.89782 0.14053 -0.26444 3.65208 0.38010 -10.95150 -1.67601 -0.06258 -16.41420 -2.40414 0.90328 -13.57910 -0.46484 0.97463 -1.62221 -0.00000 -0.00000 0.00000 -48.33133 -13.13695 44.79148 77.26042 -59.37778 -48.99025 -0.00000 0.00000 -11.92260 -0.00000 -0.00000 0.00000 59.21188 -2.07801 27.71130 -95.77787 59.87348 -65.00166 0.00000 -0.00000 -10.97560
0.00000 0.30094 0.00000 5.03770 2.08189 65.05016 0.00000 -0.00000 0.00000 11.48920 43.61853 -58.18542 23.23392 19.74739 99.49373 0.08092 0.64681 -5.64999 0.03501 1.20779 3.32073 0.00000 -0.00000 0.00000 19.70414 -9.17485 1.50332 -4.53223 -12.83682 38.76067 -2.58713 -8.94689 -34.56002 -0.23404 3.11359 -8.59516 -5.72627 1.30624 20.05960 1.01606 0.55331 -0.12660 4.23892 0.65025 -11.52060 -2.05218 -0.16695 -16.71480 -2.07189 0.87908 -13.93820 -0.30142 1.00060 -1.69942 0.00000 -0.00000 0.00000 -47.37379 -17.56321 44.28919 70.94717 -58.58292 -43.57827 -0.00000 0.00000 -13.63340 0.00000 -0.00000 0.00000 58.14152 3.22560 27.30547 -89.67680 59.99961 -59.72010 0.00000 -0.00000 -11.43580
